<?xml version="1.0" encoding="UTF-8" standalone="no"?>
<!-- Created with Inkscape (http://www.inkscape.org/) -->

<svg
   width="187.1268"
   height="139.177"
   viewBox="0 0 49.510633 36.823915"
   version="1.1"
   id="svg5"
   inkscape:version="1.2.1 (9c6d41e410, 2022-07-14)"
   sodipodi:docname="newclouds.svg"
   xmlns:inkscape="http://www.inkscape.org/namespaces/inkscape"
   xmlns:sodipodi="http://sodipodi.sourceforge.net/DTD/sodipodi-0.dtd"
   xmlns:xlink="http://www.w3.org/1999/xlink"
   xmlns="http://www.w3.org/2000/svg"
   xmlns:svg="http://www.w3.org/2000/svg">
  <sodipodi:namedview
     id="namedview7"
     pagecolor="#ffffff"
     bordercolor="#000000"
     borderopacity="0.25"
     inkscape:showpageshadow="2"
     inkscape:pageopacity="0.0"
     inkscape:pagecheckerboard="0"
     inkscape:deskcolor="#d1d1d1"
     inkscape:document-units="mm"
     showgrid="false"
     inkscape:zoom="2.1089995"
     inkscape:cx="-4.7415848"
     inkscape:cy="138.45428"
     inkscape:window-width="1920"
     inkscape:window-height="1017"
     inkscape:window-x="-8"
     inkscape:window-y="-8"
     inkscape:window-maximized="1"
     inkscape:current-layer="layer1"
     showguides="true">
    <sodipodi:guide
       position="2.1290324,19.081979"
       orientation="0,-1"
       id="guide342"
       inkscape:locked="false" />
    <sodipodi:guide
       position="25.548387,86.856178"
       orientation="1,0"
       id="guide344"
       inkscape:locked="false" />
  </sodipodi:namedview>
  <defs
     id="defs2">
    <linearGradient
       inkscape:collect="always"
       id="linearGradient2006">
      <stop
         style="stop-color:#b9b9b9;stop-opacity:1;"
         offset="0"
         id="stop2002" />
      <stop
         style="stop-color:#cccccc;stop-opacity:0;"
         offset="1"
         id="stop2004" />
    </linearGradient>
    <linearGradient
       inkscape:collect="always"
       id="linearGradient1049">
      <stop
         style="stop-color:#a3a3a3;stop-opacity:0.75789475;"
         offset="0"
         id="stop1045" />
      <stop
         style="stop-color:#d2d2d2;stop-opacity:0;"
         offset="1"
         id="stop1047" />
    </linearGradient>
    <linearGradient
       inkscape:collect="always"
       id="linearGradient1039">
      <stop
         style="stop-color:#989898;stop-opacity:0.83157897;"
         offset="0"
         id="stop1035" />
      <stop
         style="stop-color:#d2d2d2;stop-opacity:0;"
         offset="1"
         id="stop1037" />
    </linearGradient>
    <linearGradient
       inkscape:collect="always"
       id="linearGradient966">
      <stop
         style="stop-color:#adadad;stop-opacity:1;"
         offset="0"
         id="stop962" />
      <stop
         style="stop-color:#d2d2d2;stop-opacity:0;"
         offset="1"
         id="stop964" />
    </linearGradient>
    <linearGradient
       inkscape:collect="always"
       id="linearGradient5562">
      <stop
         style="stop-color:#9e9e9e;stop-opacity:1;"
         offset="0"
         id="stop5558" />
      <stop
         style="stop-color:#989898;stop-opacity:0.38157895;"
         offset="1"
         id="stop5560" />
    </linearGradient>
    <linearGradient
       inkscape:collect="always"
       id="linearGradient5381">
      <stop
         style="stop-color:#d2d2d2;stop-opacity:1;"
         offset="0"
         id="stop5377" />
      <stop
         style="stop-color:#d2d2d2;stop-opacity:0;"
         offset="1"
         id="stop5379" />
    </linearGradient>
    <linearGradient
       inkscape:collect="always"
       id="linearGradient5371">
      <stop
         style="stop-color:#d2d2d2;stop-opacity:1;"
         offset="0"
         id="stop5367" />
      <stop
         style="stop-color:#d2d2d2;stop-opacity:0;"
         offset="1"
         id="stop5369" />
    </linearGradient>
    <linearGradient
       inkscape:collect="always"
       id="linearGradient5361">
      <stop
         style="stop-color:#d2d2d2;stop-opacity:1;"
         offset="0"
         id="stop5357" />
      <stop
         style="stop-color:#d2d2d2;stop-opacity:0;"
         offset="1"
         id="stop5359" />
    </linearGradient>
    <linearGradient
       inkscape:collect="always"
       id="linearGradient5347">
      <stop
         style="stop-color:#d2d2d2;stop-opacity:1;"
         offset="0.38721806"
         id="stop5343" />
      <stop
         style="stop-color:#a1a1a1;stop-opacity:0.03947368;"
         offset="1"
         id="stop5345" />
    </linearGradient>
    <linearGradient
       inkscape:collect="always"
       id="linearGradient5311">
      <stop
         style="stop-color:#7c7c7c;stop-opacity:1;"
         offset="0"
         id="stop5307" />
      <stop
         style="stop-color:#c8c8c8;stop-opacity:0.60789472;"
         offset="1"
         id="stop5309" />
    </linearGradient>
    <radialGradient
       inkscape:collect="always"
       xlink:href="#linearGradient5311"
       id="radialGradient5315"
       cx="108.54063"
       cy="118.70449"
       fx="108.54063"
       fy="118.70449"
       r="75.739243"
       gradientTransform="matrix(0.32684927,0,0,0.20168737,-3.4681094,103.69145)"
       gradientUnits="userSpaceOnUse" />
    <radialGradient
       inkscape:collect="always"
       xlink:href="#linearGradient5347"
       id="radialGradient5349"
       cx="98.04274"
       cy="124.42164"
       fx="98.04274"
       fy="124.42164"
       r="45.359699"
       gradientTransform="matrix(0.32684927,0,0,0.15959666,-3.4681094,113.24965)"
       gradientUnits="userSpaceOnUse" />
    <radialGradient
       inkscape:collect="always"
       xlink:href="#linearGradient5361"
       id="radialGradient5363"
       cx="123.13224"
       cy="101.45903"
       fx="123.13224"
       fy="101.45903"
       r="6.4675012"
       gradientTransform="matrix(0.32684927,0,0,0.36830748,-3.4681094,86.348717)"
       gradientUnits="userSpaceOnUse" />
    <radialGradient
       inkscape:collect="always"
       xlink:href="#linearGradient5371"
       id="radialGradient5373"
       cx="78.204147"
       cy="102.02489"
       fx="78.204147"
       fy="102.02489"
       r="3.5088265"
       gradientTransform="matrix(0.32684927,0,0,0.4403949,-3.4681094,79.016988)"
       gradientUnits="userSpaceOnUse" />
    <radialGradient
       inkscape:collect="always"
       xlink:href="#linearGradient5381"
       id="radialGradient5383"
       cx="51.125778"
       cy="124.70094"
       fx="51.125778"
       fy="124.70094"
       r="9.9934568"
       gradientTransform="matrix(0.32684927,0,0,0.18555825,-3.4681094,110.08185)"
       gradientUnits="userSpaceOnUse" />
    <radialGradient
       inkscape:collect="always"
       xlink:href="#linearGradient5562"
       id="radialGradient5564"
       cx="150.35002"
       cy="110.51619"
       fx="150.35002"
       fy="110.51619"
       r="10.589652"
       gradientTransform="matrix(0.32684927,0,0,0.31421645,-3.4681094,92.694577)"
       gradientUnits="userSpaceOnUse" />
    <radialGradient
       inkscape:collect="always"
       xlink:href="#linearGradient966"
       id="radialGradient968"
       cx="29.753557"
       cy="144.59145"
       fx="29.753557"
       fy="144.59145"
       r="4.7023452"
       gradientTransform="matrix(1,0,0,0.78584428,0,25.068743)"
       gradientUnits="userSpaceOnUse" />
    <radialGradient
       inkscape:collect="always"
       xlink:href="#linearGradient1039"
       id="radialGradient1041"
       cx="46.337882"
       cy="115.95075"
       fx="46.337882"
       fy="115.95075"
       r="3.3523951"
       gradientTransform="matrix(1,0,0,0.69777388,0,35.043346)"
       gradientUnits="userSpaceOnUse" />
    <radialGradient
       inkscape:collect="always"
       xlink:href="#linearGradient1049"
       id="radialGradient1051"
       cx="52.769991"
       cy="134.09951"
       fx="52.769991"
       fy="134.09951"
       r="2.0302345"
       gradientTransform="matrix(1,0,0,1.0317343,0,-8.6464605)"
       gradientUnits="userSpaceOnUse" />
    <radialGradient
       inkscape:collect="always"
       xlink:href="#linearGradient2006"
       id="radialGradient2008"
       cx="12.942523"
       cy="136.6895"
       fx="12.942523"
       fy="136.6895"
       r="3.061264"
       gradientTransform="matrix(1,0,0,1.320848,0,-44.860183)"
       gradientUnits="userSpaceOnUse" />
  </defs>
  <g
     inkscape:label="Layer 1"
     inkscape:groupmode="layer"
     id="layer1"
     transform="translate(-7.2529986,-112.357)">
    <path
       style="fill:url(#radialGradient5315);fill-opacity:1;stroke-width:0.088107"
       d="m 15.784366,128.17067 c -1.421459,-0.3893 -2.682226,-1.20895 -4.059257,-1.6854 -0.685542,-0.23721 -1.474036,0.24271 -2.0876178,0.48153 -0.1048603,0.0408 -0.5615526,0.10136 -0.6958732,0.24078 -0.3033942,0.31492 -1.3839979,1.66129 -1.5077237,2.04658 -0.1236714,0.38511 -0.2669256,1.2937 -0.1159792,1.6854 0.1621828,0.42087 0.2357131,0.28611 0.4639158,0.60194 0.5659835,0.78332 1.5301307,1.13628 2.4355541,1.32425 0.212668,0.0441 1.016528,-0.14871 1.159786,0 0.02438,0.0252 -0.102055,0.67897 -0.115978,0.72232 -0.01729,0.0538 -0.09153,0.0696 -0.115978,0.12039 -0.225769,0.4687 -0.262543,2.45183 -0.115978,3.00965 0.03668,0.13959 0.16962,0.23176 0.231956,0.36117 0.271918,0.5645 0.672715,1.1437 1.159788,1.56502 0.0664,0.0574 0.170833,0.0569 0.231958,0.12039 0.175038,0.18169 0.27762,0.43272 0.463915,0.60193 1.207024,1.09628 -0.01038,-0.12577 0.695873,0.24078 0.0978,0.0507 0.127224,0.20815 0.231958,0.24076 0.597077,0.18593 1.233673,0.19775 1.85566,0.24078 0.780291,0.054 1.685015,-0.19477 2.435554,0 0.05304,0.0139 0.06412,0.10244 0.115979,0.12039 0.50388,0.17434 1.3633,-1.46793 1.623702,-1.80579 0.102463,-0.13296 0.245474,-0.22823 0.347937,-0.36116 0.054,-0.0701 0.05486,-0.17734 0.115979,-0.24078 0.02733,-0.0284 0.08864,0.0284 0.115979,0 0.06932,-0.0719 -0.12536,-0.24078 0.115977,-0.24078 0.0881,0 1.840208,2.51742 2.551534,3.00967 2.433782,1.68418 5.212101,2.28734 8.118514,2.28734 0.767509,0 1.669745,0.11356 2.435553,0 0.23484,-0.0348 0.443707,-0.36374 0.579896,-0.48155 0.273137,-0.23627 0.597664,-0.41106 0.811849,-0.72231 0.722717,-1.05026 0.811853,-2.36133 0.811853,-3.61159 0,-0.22737 -0.13661,-1.25336 0.231957,-1.44465 0.09589,-0.0499 1.38998,1.63615 1.855658,1.92619 1.779659,1.10837 3.258374,0.96309 5.219047,0.96309 0.541233,0 1.098631,0.13625 1.623702,0 0.21446,-0.0557 2.17911,-0.61142 2.435552,-0.72232 0.715758,-0.30957 2.051133,-1.70943 2.435557,-2.40773 0.349256,-0.63442 0.347936,-1.46801 0.347936,-2.16696 0,-0.12038 0.05188,-0.25349 0,-0.36116 -0.01731,-0.0358 -0.08865,0.0284 -0.115979,0 -0.02731,-0.0284 -0.03457,-0.10244 0,-0.12038 0.314157,-0.16305 1.176192,0.0265 1.507724,0 0.587205,-0.0469 1.433506,-0.0819 1.97164,-0.36118 0.539636,-0.28005 0.894481,-0.71477 1.391745,-1.08346 0.140687,-0.10431 0.331093,-0.12588 0.463917,-0.24078 0.249088,-0.21546 1.09618,-1.40967 1.159785,-1.80579 0.0657,-0.4092 0.312645,-2.08321 0,-2.40773 -0.09856,-0.10231 -0.215702,-0.19502 -0.347937,-0.24078 -0.210108,-0.0727 -1.899258,0.15116 -1.855661,-0.12038 0.03424,-0.21317 0.151887,-0.40246 0.231958,-0.60193 0.03236,-0.52978 0.506057,-0.98492 0.695876,-1.44464 0.238623,-0.57796 0.828027,-2.5085 0.927827,-3.13006 0.03814,-0.23749 -0.02874,-0.48341 0,-0.72231 0.0349,-0.2899 0.17676,-0.55624 0.231959,-0.8427 0.164972,-0.85621 0.241921,-2.03952 0.115978,-2.88929 -0.102894,-0.69423 -1.141304,-2.02737 -1.623702,-2.52811 -0.3987,-0.41385 -0.9889,-0.66532 -1.391745,-1.08347 -0.175039,-0.1817 -0.262481,-0.45259 -0.463916,-0.60193 -0.09438,-0.07 -0.237909,0.038 -0.347937,0 -0.864024,-0.29896 -1.638927,-0.89404 -2.551532,-1.08349 -0.379085,-0.0787 -0.774527,0.0333 -1.159791,0 -0.665171,-0.0575 -1.297429,-0.12039 -1.971634,-0.12039 -1.082392,0 -2.306311,-0.15392 -3.363387,0.12039 -0.167726,0.0435 -0.303389,0.17413 -0.463914,0.24077 -0.719773,0.29886 -1.640468,0.58162 -2.087619,1.32426 -0.126712,0.21044 -0.903486,2.35124 -0.92783,2.52811 -0.02733,0.19864 0.02399,0.40285 0,0.60193 -0.04155,0.34507 -0.231955,0.6041 -0.231955,0.9631 0,0.11475 0.01928,1.03667 -0.115982,1.08348 -0.436596,0.15106 -1.417353,-0.57067 -1.855658,-0.72232 -0.772073,-0.26714 -2.907006,-0.40619 -3.595341,-0.12038 -0.332828,0.13818 -0.558569,0.49696 -0.811852,0.7223 -0.98411,0.87558 -1.391747,1.30627 -1.391747,2.64852 0,0.20949 -0.06317,0.5256 0,0.72231 0.05041,0.15696 0.258549,0.40755 0.115979,0.48155 -0.374346,0.19428 -1.747388,-0.18816 -2.203594,-0.24077 -0.677334,-0.0782 -1.408382,0 -2.087619,0 -0.452373,0 -1.040637,0.11709 -1.391745,0.48154 -0.09735,0.10104 -0.332222,0.69305 -0.463915,0.60193 -0.413087,-0.28586 -0.351955,-0.73066 -0.579896,-1.20386 -0.08644,-0.17946 -0.244158,-0.31227 -0.347935,-0.48155 -0.288343,-0.47033 -0.462328,-1.02137 -0.811851,-1.44463 -0.09071,-0.10986 -0.240855,-0.14816 -0.347937,-0.24078 -0.453954,-0.39268 -0.75717,-1.05509 -1.275766,-1.32426 -0.171291,-0.0889 -0.798803,0 -0.927831,0 -0.115979,0 -0.244201,-0.0538 -0.347936,0 -0.146702,0.0762 -0.211464,0.26673 -0.347936,0.36117 -1.135971,0.78609 -1.623703,1.69333 -1.623703,3.13005 0,0.2589 -0.05226,0.6919 0,0.96309 0.05613,0.29135 0.690441,1.15997 0.927831,1.32426 0.03216,0.0222 0.08864,-0.0284 0.115979,0 0.05468,0.0567 0,0.1605 0,0.24077 0,0.12038 0.110027,0.32309 0,0.36115 -0.146704,0.0508 -0.309278,0 -0.463916,0 -0.80279,0 -1.821102,-0.0358 -2.435554,0.60194 -0.364766,0.37863 -0.640198,1.13646 -0.463915,1.68541 0.01729,0.0538 0.09153,0.0696 0.115978,0.12039 0.03876,0.0805 0.05306,0.90802 0,0.96308 -0.04579,0.0475 -0.986222,0.0597 -1.043808,0 -0.02733,-0.0284 0,-0.0802 0,-0.12038 -0.193298,-0.20064 -0.386596,-0.40128 -0.579894,-0.60194 z"
       id="path245" />
    <path
       style="fill:url(#radialGradient5349);fill-opacity:1;stroke-width:0.09673"
       d="m 22.743092,133.15876 c -1.275766,0.0483 -2.577168,-0.17692 -3.827298,0.1451 -0.122278,0.0315 -0.09337,2.59772 -0.579895,2.90207 -0.204469,0.12792 -1.118824,0.0328 -1.275767,0 -0.170539,-0.0356 -0.294381,-0.24779 -0.463915,-0.2902 -0.401317,-0.10043 -1.032813,0.22454 -1.391745,0 -0.264251,-0.1653 -0.490546,-0.1451 -0.811852,-0.1451 -0.207171,0.41993 -0.839065,1.38294 -0.579892,2.03144 0.01729,0.0432 0.08864,-0.0342 0.115977,0 0.06112,0.0765 0.06803,0.20023 0.11598,0.29022 0.168813,0.31681 0.455289,0.52485 0.695872,0.72551 0.04549,0.038 0.07732,0.0968 0.115979,0.14511 0.03866,0.0967 0.04406,0.23022 0.115978,0.29021 0.06434,0.0536 0.158607,-0.0305 0.231958,0 0.05186,0.0217 0.06411,0.12347 0.115979,0.1451 0.429702,0.17921 1.608183,0.49014 2.087618,0.29021 0.163051,-0.068 1.493844,-0.70816 1.623702,-0.87063 0.131445,-0.16444 0.155718,-0.46017 0.347936,-0.58041 0.199239,-0.12463 0.772251,-0.49406 1.04381,-0.29021 0.444835,0.33393 0.592304,0.75657 0.811851,1.30594 0.03866,0.0967 0.193298,0.0483 0.231958,0.1451 0.05186,0.12979 -0.08201,0.33272 0,0.43532 0.02733,0.0342 0.0814,-0.0217 0.115978,0 0.299429,0.18731 -0.07654,0.25828 0.347936,0.4353 0.311415,0.12988 2.378097,0.0724 2.667512,0 0.843452,-0.21105 1.823172,-0.89377 2.087619,-1.88634 0.100114,-0.37576 -0.08444,-1.54333 0,-1.59615 0.20335,-0.1272 0.904149,0.69589 1.043809,0.87062 0.02733,0.0342 -0.02733,0.1109 0,0.1451 0.07719,0.0966 0.928598,0.63544 1.043809,0.72553 0.209915,0.16415 0.373926,0.40862 0.579891,0.58041 0.407346,0.33976 2.337528,0.17952 2.667516,0.14511 0.379233,-0.0396 2.56372,-1.03099 2.783488,-1.30594 0.06112,-0.0765 0.05486,-0.21373 0.115978,-0.29021 0.09857,-0.12331 0.260862,-0.15402 0.347936,-0.2902 0.533524,-0.83439 -0.636234,-2.0978 1.04381,-1.45104 0.35054,0.13495 0.686444,0.33213 1.04381,0.43531 0.150679,0.0435 0.310472,-0.0241 0.463914,0 0.924356,0.14456 1.956882,0.29252 2.89947,0.1451 0.445398,0.52356 0.375749,-0.23913 0.579892,-0.29021 0.151636,-0.038 0.315228,0.0531 0.463917,0 0.134024,-0.0479 0.228409,-0.20048 0.347935,-0.2902 0.549237,-0.41229 1.275767,-0.52489 1.275767,-1.59615 0,-0.0349 0.035,-0.78303 0,-0.87062 -0.163264,-0.40852 -0.457709,-0.57265 -0.69587,-0.87064 -0.09857,-0.12331 -0.123116,-0.32635 -0.23196,-0.4353 -0.977893,-0.97876 -2.084011,-0.87062 -3.247404,-0.87062 -0.107377,0 -1.334702,-0.0737 -1.391747,-0.1451 -0.162715,-0.20359 -0.372649,-1.39871 -0.463914,-1.74125 -0.02445,-0.0918 0.03457,-0.20369 0,-0.29021 -0.093,-0.23269 -0.529515,-0.4093 -0.695875,-0.43531 -0.817682,-0.12788 -1.730396,0 -2.551533,0 -0.463913,0 -0.936837,-0.11382 -1.391742,0 -0.169535,0.0424 -0.297679,0.23078 -0.463918,0.29021 -0.111514,0.0399 -0.24025,-0.0539 -0.347935,0 -0.101525,0.0508 -0.130432,0.2394 -0.231957,0.29021 -0.107685,0.0539 -0.237911,-0.0459 -0.347939,0 -0.132236,0.0551 -0.22326,0.21222 -0.347933,0.2902 -0.186209,0.11649 -0.406672,0.14573 -0.579896,0.29022 -0.117537,0.098 -0.605077,1.07873 -0.695873,1.30593 -0.03457,0.0865 0.05468,0.2218 0,0.2902 -0.02732,0.0342 -0.0814,0.0216 -0.115978,0 -0.248709,-0.15558 -0.6205,-1.02303 -0.695872,-1.30593 -0.02445,-0.0918 0.02445,-0.19843 0,-0.2902 -0.07427,-0.27878 -0.230949,-0.21578 -0.347937,-0.43532 -0.04289,-0.0805 0.02445,-0.19844 0,-0.29021 -0.0097,-0.0365 -0.919057,-0.6865 -1.043809,-0.72552 -0.503528,-0.15749 -1.464292,0.0681 -1.85566,0.43531 -0.08747,0.0821 -0.140977,0.21432 -0.231957,0.29021 -0.03216,0.0268 -0.08864,-0.0342 -0.115979,0 -0.02733,0.0342 0.02733,0.11091 0,0.14511 -0.06112,0.0765 -0.170831,0.0686 -0.231957,0.1451 -0.06485,0.0811 -0.02847,0.56129 -0.115979,0.72552 -0.11229,0.21073 -0.360739,0.4273 -0.579894,0.29021 -0.314836,-0.19695 -0.248925,-0.49899 -0.347936,-0.87063 -0.154638,-0.58041 -0.111289,0.0294 -0.231958,-0.72552 -0.10803,-0.6758 0,-1.48054 0,-2.17656 0,-0.1105 0.06635,-0.6425 0,-0.72552 -0.0307,-0.0385 -0.30018,0 -0.347936,0 -0.204229,0 -0.502266,-0.0808 -0.695873,0 -0.425302,0.17737 -0.810729,0.86852 -1.043808,1.30594 -0.197989,0.37156 -0.11598,-0.18603 -0.11598,0.58042 0,0.12523 0.03096,1.99272 0,2.03146 -0.02733,0.0342 -0.08864,-0.0342 -0.115978,0 -0.06062,0.0758 -0.03592,0.92585 0,1.01571 0.132812,0.33233 0.81673,0.73468 1.043808,1.16084 0.06434,0.12073 -0.03187,0.2958 0,0.4353 0.05719,0.25046 0.154639,0.48369 0.231958,0.72554 z"
       id="path5317" />
    <path
       style="fill:#9e9e9e;fill-opacity:0.407895;stroke-width:0.09673"
       d="m 49.998102,118.35815 c -0.347937,-0.14511 -0.691164,-0.30926 -1.043812,-0.43532 -0.189538,-0.0677 -0.384747,-0.11022 -0.57989,-0.1451 -0.896354,-0.16021 -1.159792,-0.006 -1.159792,1.16082 0,0.1743 -0.06097,0.57295 0,0.72554 0.1396,0.34929 0.53325,0.98734 0.347938,1.45103 -0.01731,0.0432 -0.07731,0 -0.115979,0 -0.154636,0 -0.309276,0 -0.463911,0 -0.215285,0 -1.409661,0.13389 -1.623702,0 -0.278897,-0.17447 -0.645261,-0.25854 -0.927829,-0.43531 -0.294654,-0.18432 0.118772,-0.17342 -0.34794,-0.29021 -0.528427,-0.13223 -1.916257,-0.36167 -2.435552,-0.14511 -0.906952,0.37824 -1.51193,2.15554 -1.275769,3.3374 0.03866,0.19347 0.04469,0.40204 0.11598,0.58041 0.06236,0.15603 0.466684,0.28328 0.347935,0.58042 -0.241337,0.6039 0.008,-0.15512 -0.231956,0.14511 -0.06112,0.0765 -0.05485,0.21372 -0.115979,0.29021 -0.02732,0.0342 -0.0814,-0.0217 -0.11598,0 -0.147539,0.0923 -1.318176,1.16787 -1.391743,1.30593 -0.127939,0.2401 0.135557,1.18533 0.231956,1.30594 0.05799,0.0725 0.173968,0.0725 0.231957,0.1451 0.05447,0.0682 0.02932,1.12414 0,1.16083 -0.0873,0.10922 -0.516778,0.35634 -0.579892,0.43531 -0.02733,0.0342 0.02733,0.1109 0,0.1451 -0.05468,0.0685 -0.177286,-0.0684 -0.231958,0 -0.03253,0.0407 -0.210796,0.50099 -0.23196,0.58042 -0.04472,0.1679 -0.05953,3.40413 0,3.6276 0.09284,0.34847 0.346314,0.43125 0.463918,0.72552 0.01729,0.0432 -0.02733,0.11091 0,0.1451 0.0536,0.0671 0.277909,-0.0437 0.347935,0 0.627134,0.39232 2.132001,0.1451 2.899469,0.1451 0.154639,0 0.325604,-0.0865 0.463914,0 0.612642,0.38326 -0.782609,2.39484 -0.463914,3.1923 0.08882,0.22224 0.206676,0.11346 0.347937,0.29021 0.427817,0.53524 -0.27774,0.0585 0.347935,0.58041 0.07071,0.0589 1.602032,0.0286 1.739681,0 0.195763,-0.0408 0.985949,-0.41729 1.159791,-0.58041 0.154636,-0.14511 0.32723,-0.26431 0.463917,-0.43532 0.408103,-0.5106 0.347932,-2.24642 0.347932,-2.90207 0,-0.24185 -0.08644,-0.50922 0,-0.72553 0.153986,-0.38531 1.199524,-0.41874 1.507723,-0.29021 0.104218,0.0434 0.550462,0.39849 0.579896,0.43532 0.02732,0.0342 -0.03456,0.12347 0,0.1451 0.0056,0.003 0.415769,0.0302 0.463911,0 0.220116,-0.13769 0.998166,-1.54368 1.043812,-1.88635 0,-1.51727 -0.06916,0.0559 0.115979,-0.87062 0.08022,-0.40143 0.04006,-1.24523 0,-1.59615 -0.08595,-0.75274 -1.011673,-1.96676 -0.695874,-2.75696 0.339436,-0.84936 2.437255,-0.87276 3.015452,-1.59616 0.03149,-0.0394 0.336029,-0.79616 0.347932,-0.87062 0.06079,-0.38021 0.10163,-2.64778 0,-2.90208 -0.06916,-0.17305 -0.309276,0 -0.463912,0 -0.285067,0 -1.280727,-0.14201 -1.507728,0 -0.122288,0.0765 -0.275237,0.30248 -0.46391,0.14511 -0.339475,-0.28316 -0.02375,-0.20457 -0.115979,-0.43531 -0.40784,-1.02052 0.514921,-1.46851 0.231957,-2.17656 -0.04891,-0.12237 -0.183059,-0.16785 -0.231957,-0.29021 -0.115118,-0.28806 -0.244089,-0.69091 -0.347939,-1.01573 z"
       id="path5351" />
    <path
       style="fill:url(#radialGradient968);fill-opacity:1;stroke-width:0.0894358"
       d="m 27.6142,135.99217 c -0.270617,0 -0.541922,-0.0206 -0.811851,0 -0.471698,0.0361 -0.828203,0.0175 -1.159789,0.37214 -0.05361,0.0574 0.03501,0.29724 0,0.37214 -0.313196,0.66996 -1.019295,1.42333 -0.231956,1.98473 0.09098,0.0648 0.128222,0.21113 0.231956,0.2481 0.100532,0.0357 0.652029,0.0928 0.695873,0.1241 0.07193,0.0514 0.04406,0.19679 0.115979,0.24809 0.115979,0.0826 0.231959,-0.0413 0.347937,0 0.197505,0.0703 0.37792,0.1941 0.579894,0.24808 0.106025,0.0285 1.224126,0.0687 1.275766,0.1241 0.22528,0.24094 0.710871,1.04048 0.811851,1.3645 0.03668,0.11765 -0.04307,0.25695 0,0.37214 0.01951,0.0522 0.597906,0.83339 0.695875,0.86833 0.453618,0.16172 1.152548,0 1.623702,0 0.410772,0 1.012906,0.11913 1.391744,-0.1241 0.238622,-0.15313 0.256436,-0.30045 0.347937,-0.49618 0.265396,-0.56771 -0.04807,0.52637 0.231956,-0.37213 0.121668,-0.3904 -0.03585,-1.02174 -0.115977,-1.36452 -0.06072,-0.25977 -0.0045,-0.62993 -0.115979,-0.86833 -0.04891,-0.10464 -0.205437,-0.13463 -0.231958,-0.24808 -0.02024,-0.0865 -0.03813,-0.74596 0,-0.86832 0.05186,-0.16644 0.256955,-0.22619 0.347937,-0.37214 0.02144,-0.0345 -0.03216,-0.10115 0,-0.1241 0.101719,-0.0724 0.23859,-0.0655 0.347935,-0.12409 0.482677,-0.25812 -0.123984,0.008 0.115978,-0.2481 0.06112,-0.0653 0.170832,-0.0586 0.23196,-0.1241 0.02732,-0.0293 -0.01222,-0.0848 0,-0.1241 0.132256,-0.42438 0.212176,-0.51733 -0.115979,-0.86833 -0.931583,-0.99638 -1.960325,-0.99237 -3.247405,-0.99237 -1.554488,0 -0.964693,0.57793 -1.971641,1.11642 -0.307893,0.16465 -1.155357,-0.0735 -1.391745,-0.1241 z"
       id="path5353" />
    <path
       style="fill:url(#radialGradient5363);fill-opacity:1;stroke-width:0.09673"
       d="m 37.472394,122.27596 c -0.317116,-0.215 -1.643917,-1.42575 -2.203596,-0.72553 -0.02732,0.0342 0.01729,0.10184 0,0.1451 -0.07767,0.19435 -0.276683,0.20107 -0.347936,0.29022 -0.02733,0.0342 0.02732,0.11089 0,0.1451 -0.02733,0.0342 -0.08864,-0.0342 -0.115978,0 -0.04477,0.0559 -0.201808,0.51075 -0.11598,0.72551 0.24715,0.61844 0.811851,0.28874 0.811851,0.87064 0,0.6435 -0.499067,0.52327 -0.695871,1.01572 -0.03458,0.0865 0,0.19347 0,0.29021 0,0.59291 0.125575,0.51387 0.463914,0.72552 0.0489,0.0305 0.07732,0.0967 0.115981,0.1451 0,0.0483 -0.03458,0.12348 0,0.14511 0.180591,0.11297 0.736903,0 0.927829,0 0.437279,0 0.910329,0.0835 1.275766,-0.14511 0.15464,-0.0967 0.425257,0.0967 0.579892,0 0.192222,-0.12025 0.216495,-0.41596 0.347937,-0.58041 0.239965,-0.30022 -0.0094,0.45878 0.23196,-0.1451 0.06916,-0.17305 -0.0375,-0.39273 0,-0.58042 0.01327,-0.0663 0.09869,-0.0802 0.115979,-0.14512 0.02628,-0.0986 0.04536,-0.7571 0,-0.87061 -0.03329,-0.0833 -0.506754,-0.53467 -0.579893,-0.58042 -0.06917,-0.0432 -0.177287,0.0685 -0.231959,0 -0.02732,-0.0342 0,-0.0967 0,-0.14511 -0.193298,-0.19346 -0.386598,-0.38694 -0.579896,-0.5804 z"
       id="path5355" />
    <path
       style="fill:url(#radialGradient5373);fill-opacity:1;stroke-width:0.09673"
       d="m 22.627113,122.42106 c -0.523074,-0.0105 -0.841262,-0.1083 -1.159787,0.29021 -0.02733,0.0342 0.02732,0.11089 0,0.14509 -0.02733,0.0342 -0.08864,-0.0342 -0.11598,0 -0.118522,0.1483 -0.115978,0.50068 -0.115978,0.72553 0,0.20976 0.05275,0.67262 0,0.87061 -0.07047,0.26452 -0.426363,0.094 -0.231957,0.58043 0.01729,0.0432 0.0793,-0.0153 0.115979,0 0.244372,0.10191 0.480181,0.34536 0.695871,0.43531 0.191043,0.0796 0.305196,-0.0459 0.463916,-0.1451 0.174971,-0.10945 0.606809,-0.35756 0.695872,-0.58042 0.07027,-0.17583 0.177937,-0.52275 0.231958,-0.72552 0.029,-0.10885 0.05615,-1.10462 0,-1.16084 -0.176025,-0.17618 -0.386596,-0.29019 -0.579894,-0.4353 z"
       id="path5365" />
    <path
       style="fill:url(#radialGradient5383);fill-opacity:1;stroke-width:0.09673"
       d="m 13.232834,131.99792 c -0.386597,-0.19347 -0.759434,-0.4373 -1.159789,-0.58042 -0.218695,-0.0782 -1.688668,-0.0909 -1.971639,0.14511 -0.1746281,0.14565 -0.115979,0.34567 -0.115979,0.58041 0,0.91758 0.091162,0.92765 0.695873,1.30594 0.115059,0.072 0.227804,0.2401 0.347937,0.29021 0.190622,0.0795 0.515761,-0.11267 0.695872,0 0.271947,0.17012 0.04548,0.84123 0.463915,1.01572 0.270746,0.11291 1.473049,0.0834 1.739681,0 0.192967,-0.0603 0.699625,-0.28786 0.92783,-0.1451 0.04889,0.0305 0.07732,0.0967 0.115979,0.1451 0.115979,0 0.23791,-0.0459 0.347937,0 0.03668,0.0153 -0.02733,0.1109 0,0.1451 0.16281,0.20371 0.678736,0.14512 0.92783,0.14512 0.07732,0 0.177284,0.0683 0.231957,0 0.04271,-0.0535 0.03278,-0.74764 0,-0.87063 -0.07482,-0.2808 -0.137262,-0.48856 -0.231957,-0.72552 -0.01729,-0.0432 0.03457,-0.12348 0,-0.1451 -0.06916,-0.0432 -0.1628,0.0432 -0.231958,0 -0.03457,-0.0216 0.02733,-0.11091 0,-0.1451 -0.09139,-0.11434 -0.604484,-0.32098 -0.695872,-0.43532 -0.02733,-0.0342 0.02733,-0.1109 0,-0.14512 -0.08201,-0.10259 -0.231958,0 -0.347937,0 -0.900999,0 -0.933786,-0.2443 -1.73968,-0.5804 z"
       id="path5375" />
    <path
       style="fill:url(#radialGradient5564);fill-opacity:1;stroke-width:0.09673"
       d="m 45.474932,124.88783 c -0.753184,-0.23558 -0.798703,-0.60236 -1.159786,0 -0.524049,0.87419 0.894266,1.72087 0.347932,2.17655 -0.06433,0.0536 -0.156943,-0.0235 -0.231953,0 -0.08387,0.0262 -0.149953,0.1109 -0.231959,0.14511 -0.09781,0.0408 -0.256348,-0.0573 -0.347939,0 -0.04889,0.0305 -0.06412,0.12347 -0.115979,0.14511 -0.173966,0.0725 -0.405924,-0.0726 -0.579892,0 -0.05186,0.0217 -0.06708,0.1145 -0.11598,0.14511 -0.142568,0.0891 -0.351203,0.003 -0.463916,0.14509 -0.02732,0.0342 0.02733,0.1109 0,0.14511 -0.162758,0.20363 -0.347935,0.10137 -0.347935,0.4353 0,0.11198 -0.03389,0.51682 0,0.58042 0.04795,0.09 0.170831,0.0686 0.231958,0.14511 0.196665,0.24605 0.368562,0.60621 0.579893,0.87063 0.07457,0.0933 0.389349,0.34201 0.463917,0.4353 0.06113,0.0765 0.05485,0.21373 0.115977,0.29021 0.082,0.1026 0.237909,-0.0459 0.347937,0 0.05186,0.0217 0.06412,0.12346 0.115978,0.1451 0.302316,0.12608 0.849523,0 1.159789,0 0.03462,0 0.677618,0.0456 0.695875,0 0.03457,-0.0865 -0.02445,-0.19844 0,-0.2902 0.107169,-0.40227 0.933977,-1.02343 1.159786,-1.30594 0.285002,-0.35657 0.137044,-0.76506 0.347932,-1.16083 0.02144,-0.0403 0.09869,0.0432 0.115979,0 0.03457,-0.0865 -0.02445,-0.19844 0,-0.29021 0.122997,-0.46163 0.108967,0.17143 0.231958,-0.2902 0.02445,-0.0918 -0.02446,-0.19845 0,-0.29022 0.120672,-0.4529 0.07732,0.0483 0.231958,-0.14511 0.239966,-0.30022 -0.366694,0.0117 0.11598,-0.2902 0.16711,-0.10453 0.418567,-0.18929 0.579896,-0.2902 0.346212,-0.21658 0.599949,-1.94637 0.231952,-2.17657 -0.164049,-0.10262 -1.081029,-0.0812 -1.275765,0 -0.170512,0.071 -0.321015,0.39062 -0.463917,0.43532 -0.150018,0.047 -0.325598,-0.0865 -0.463911,0 -0.345135,0.2159 -0.878488,0.29021 -1.275765,0.29021 z"
       id="path5556" />
    <path
       style="fill:url(#radialGradient1041);fill-opacity:1;stroke-width:0.264583"
       d="m 47.272963,113.61154 c -0.376365,0 -0.752729,0 -1.129091,0 -0.628827,0 -0.519959,0.24077 -1.129091,0.50182 -0.723442,0.31005 -1.003633,0.66137 -1.003633,1.38 0,0.12546 -0.05611,0.26415 0,0.37636 0.0076,0.0152 0.35605,0.10515 0.376362,0.12546 0.01955,0.0195 0.01955,0.48226 0,0.50182 -0.32198,0.32198 -1.276533,0.19142 -1.379998,0.50181 -0.159351,0.47805 0.588449,0.93594 0.878181,1.12909 0.03479,0.0232 0.09588,-0.0296 0.125455,0 0.02957,0.0296 -0.02957,0.0959 0,0.12546 0.06374,0.0637 0.784233,0.0313 0.878178,0 0.336955,-0.11232 0.483048,-0.63781 0.627275,-0.87818 0.147965,-0.24661 0.467476,-0.38758 0.627271,-0.62727 0.05187,-0.0778 0.05933,-0.18479 0.125455,-0.25091 0.180864,-0.18087 2.342809,-0.38998 2.759996,-0.25091 0.37094,0.12364 -0.266253,0.31747 0.501819,0.12545 0.257051,-0.0643 0.125455,-1.12086 0.125455,-1.38 0,-0.60253 -0.480894,-0.36939 -0.878181,-0.50181 -0.168315,-0.0561 -0.228743,-0.27795 -0.376365,-0.37637 -0.343564,-0.22904 -0.492479,-0.37449 -1.129088,-0.50182 z"
       id="path1033" />
    <path
       style="fill:url(#radialGradient1051);fill-opacity:1;stroke-width:0.282012"
       d="m 54.800226,128.38168 c -0.08995,-0.0859 -1.379691,-0.99804 -1.630907,-0.71264 -0.175562,0.19946 -0.242028,1.13517 -0.501817,1.28274 -0.170582,0.0969 -0.318968,0.32372 -0.501817,0.42759 -0.378356,0.21492 -0.824835,0.22444 -1.12909,0.57011 -0.181968,0.20672 -0.391229,0.53632 -0.25091,0.85515 0.237916,0.54058 0.197252,0.25458 0.501819,0.42759 0.01553,0.009 0.146138,0.36806 0.250907,0.42758 0.02175,0.0124 1.35541,0.15649 1.380001,0.14252 0.0374,-0.0212 -0.01871,-0.10009 0,-0.14252 0.02752,-0.0625 0.621284,-0.85176 0.627271,-0.85517 0.07481,-0.0425 0.176102,0.0425 0.25091,0 0.162766,-0.0925 0.492207,-0.27414 0.627272,-0.42757 0.240299,-0.27301 0.310829,-1.62312 0.376361,-1.99538 z"
       id="path1043" />
    <path
       style="fill:#cccccc;fill-opacity:0.66885966;stroke-width:0.264583"
       d="m 52.542047,115.74427 c 1.391227,0.82857 1.254546,0.77603 1.254546,1.88182 0,1.12996 -0.129389,1.00167 0.878181,1.50545 0.52211,0.26105 -0.134117,-0.009 0.125452,0.25091 0.02957,0.0296 0.09588,-0.0296 0.125455,0 0.01799,0.018 0,1.21976 0,1.38 0,0.40053 -0.275958,0.25091 -0.627271,0.25091 -0.08432,0 -0.302324,0.037 -0.376362,0 -0.150548,-0.0753 -0.225819,-0.30109 -0.376365,-0.37637 -0.07603,-0.038 -0.323791,-0.0729 -0.376364,-0.12545 -0.02957,-0.0296 0.02957,-0.0959 0,-0.12546 -0.106614,-0.10661 -0.241504,-0.18348 -0.376362,-0.25091 -0.07481,-0.0374 -0.176101,0.0374 -0.25091,0 -0.207922,-0.10396 -0.23418,-0.35963 -0.376362,-0.50181 -0.06612,-0.0661 -0.19904,-0.0476 -0.250909,-0.12546 -0.06959,-0.10438 0.08871,-0.28765 0,-0.37636 -0.02957,-0.0296 -0.106754,0.0374 -0.125455,0 -0.0374,-0.0748 0.02646,-0.17157 0,-0.25091 -0.01871,-0.0561 -0.106751,-0.0694 -0.125455,-0.12545 -0.02646,-0.0793 0,-0.16728 0,-0.25091 -0.04182,-0.0836 -0.09588,-0.1622 -0.125455,-0.25091 -0.08782,-0.26346 0.08782,-0.61473 0,-0.87818 -0.163655,-0.49097 -0.695261,-0.92512 -0.501816,-1.50546 0.04182,-0.12545 0.06632,-0.25808 0.125454,-0.37636 0.0814,-0.16279 0.700921,-0.36908 0.878182,-0.25091 0.196828,0.13122 0.334544,0.33455 0.501816,0.50182 z"
       id="path1053" />
    <path
       style="fill:url(#radialGradient2008);fill-opacity:1;stroke-width:0.23682"
       d="m 11.142086,132.47417 c 0.320408,0.1286 -1.3764642,0.6172 -1.2545444,1.10558 0.1153124,0.46191 0.7055354,0.18211 1.0036354,0.30152 0.592419,0.2373 -0.765725,-0.0529 0.501818,0.20101 0.04057,0.008 0.09588,-0.0237 0.125454,0 0.08279,0.0663 0.177234,0.32226 0.376364,0.40203 0.329055,0.13181 0.674414,0.3267 1.003635,0.50254 0.419047,0.22381 -0.117852,1.82131 0.125454,2.21116 0.0187,0.03 0.09589,-0.0237 0.125455,0 0.02749,0.022 0.344486,0.46052 0.501818,0.50254 0.07934,0.0212 0.171564,-0.0212 0.250909,0 0.364643,0.0974 0.250908,0.42112 0.250908,0.70355 0,0.24112 -0.275949,0.56291 -0.125454,0.80405 0.07986,0.12797 0.501046,0.43512 0.627272,0.50254 0.06937,0.037 0.870681,0.009 0.878181,0 0.07335,-0.0882 0.06631,-0.20676 0.125454,-0.30152 0.328786,-0.52681 0.135759,-0.25055 0.250909,-0.80406 0.18078,-0.86899 0.126117,-1.40604 -0.376363,-2.21116 -0.134859,-0.21609 -0.389823,-0.37874 -0.501818,-0.60305 -0.08069,-0.16161 -0.02389,-0.44031 -0.125454,-0.60304 -0.12455,-0.19956 -0.373875,-0.39804 -0.501818,-0.60304 -0.05018,-0.0804 0.05018,-0.22112 0,-0.30152 -0.08032,-0.1287 -0.195151,-0.26803 -0.250909,-0.40203 -0.148961,-0.35802 0.210929,-0.96863 0,-1.3066 -0.127871,-0.20489 -0.167968,-0.13457 -0.376363,-0.30152 -0.02957,-0.0237 0.0232,-0.0727 0,-0.10051 -0.176301,-0.21187 -0.902866,-0.64341 -1.254544,-0.50254 -0.522112,0.20915 0.134115,-0.007 -0.125455,0.20102 -0.13224,0.10594 -0.343228,0.1216 -0.501817,0.20101 -0.255719,0.12804 -0.501818,0.26803 -0.752727,0.40204 z"
       id="path2000" />
  </g>
</svg>
